<svg width="853" height="632" viewBox="0 0 853 632" fill="none" xmlns="http://www.w3.org/2000/svg">
<g id="undraw_Ride_a_bicycle_2yok 1" clip-path="url(#clip0)">
<path id="Vector" d="M132.972 78.9363C128.553 84.2903 126.851 91.8181 124.948 98.8951C109.625 155.93 71.8661 201.805 28.8653 234.573C10.6552 248.453 -11.5145 267.068 -7.53058 291.954C-5.38538 305.319 4.02609 315.157 11.0182 326.042C25.6878 348.835 30.4459 379.816 23.4539 407.102C15.5021 438.147 -6.72412 467.115 0.155045 498.506C4.39706 517.829 18.8006 531.581 32.6476 543.4C54.2502 561.826 76.5409 579.088 99.5198 595.185C114.923 605.973 131.311 616.472 149.263 617.841C165.069 619.048 180.554 613.05 195.562 607.133C208.675 601.956 222.119 596.569 232.708 586.2C239.619 579.429 245.127 570.693 252.805 565.154C270.838 552.143 293.999 560.388 314.677 565.959C363.468 579.034 415.687 574.26 462.115 552.481C533.335 519.069 587.618 448.903 657.28 411.256C687.233 395.065 719.814 385.017 747.548 364.165C763.173 352.292 776.601 337.786 787.226 321.3C808.195 289.007 819.534 247.833 816.259 207.529C812.985 167.225 794.638 128.386 765.823 105.634C734.975 81.2792 696.015 76.7302 660.918 62.1093C624.675 47.0054 592.432 21.0484 556.537 4.84145C527.491 -8.23633 495.88 -14.6562 464.025 -13.947C432.17 -13.2379 400.878 -5.41782 372.444 8.93949C333.379 28.6648 293.782 74.6853 250.273 78.1795C219.272 80.5948 157.182 49.614 132.972 78.9363Z" fill="url(#paint0_linear)" fill-opacity="0.19"/>
<g id="right-wheel">
<path id="Vector_2" d="M549.543 577.582L544.494 498.761L544.389 498.592L539.292 500.364L515.832 568.645L478.533 542.238L537.962 499.236L538.018 499.067L538.357 498.947L542.188 496.169L479.896 461.299L464.63 478.046L467.049 493.746L538.663 495.018V496.628L465.694 495.324L462.952 477.522L483.832 454.617L515.058 418.25L515.615 419.755L522.228 412.509L546.857 416.913V415.939L548.47 415.987V417.203L585.051 423.741L550.914 491.894L545.938 495.493V495.895V496.346L624.818 468.908L615.455 542.342L548.518 499.776L546.164 498.455L585.632 561.971L549.543 577.582ZM546.317 501.628L551.035 575.199L583.334 561.206L546.317 501.628ZM481.34 542.238L515.042 566.093L537.091 501.893L481.34 542.238ZM547.728 497.425L549.414 498.367L614.213 539.589L622.923 471.259L547.728 497.425ZM542.002 491.628L544.026 494.889L544.381 494.631L546.801 418.524L522.816 414.224L516.236 421.47L542.002 491.628ZM481.203 460.188L541.559 494.003L540.51 492.288L515.042 422.831L485.041 455.744L481.203 460.188ZM548.438 418.813L546.018 493.44L549.664 490.799L582.656 424.924L548.438 418.813Z" fill="#535461"/>
<path id="Vector_3" d="M545.438 401.439C536.878 401.429 528.357 402.578 520.107 404.853C515.851 406.024 511.685 407.496 507.639 409.257C486.082 418.586 468.756 435.565 459.014 456.91C449.272 478.255 447.806 502.448 454.9 524.81C461.993 547.171 477.141 566.112 497.414 577.968C517.688 589.823 541.645 593.751 564.652 588.992C587.658 584.233 608.079 571.124 621.964 552.202C635.849 533.281 642.211 509.89 639.82 486.556C637.428 463.222 626.453 441.602 609.018 425.879C591.582 410.157 568.925 401.448 545.43 401.439H545.438ZM545.115 567.365C528.759 567.359 512.898 561.767 500.165 551.518C487.432 541.27 478.593 526.981 475.118 511.026C471.642 495.07 473.738 478.408 481.058 463.805C488.378 449.203 500.48 437.54 515.357 430.753C519.14 429.024 523.07 427.631 527.099 426.591C536.947 424.039 547.228 423.61 557.255 425.333C567.283 427.056 576.828 430.891 585.256 436.583C593.683 442.276 600.799 449.695 606.131 458.347C611.463 466.998 614.888 476.685 616.178 486.761C617.468 496.837 616.594 507.072 613.613 516.784C610.633 526.497 605.615 535.464 598.892 543.09C592.17 550.715 583.898 556.824 574.627 561.01C565.356 565.196 555.298 567.362 545.123 567.365H545.115Z" fill="#535461"/>
<path id="Vector_4" d="M545.115 506.152C550.821 506.152 555.446 501.535 555.446 495.839C555.446 490.143 550.821 485.525 545.115 485.525C539.41 485.525 534.784 490.143 534.784 495.839C534.784 501.535 539.41 506.152 545.115 506.152Z" fill="#535461"/>
</g>
<g id="left-wheel">
<path id="Vector_5" d="M205.835 577.26L200.778 498.407L200.673 498.238L195.576 500.009L172.124 568.323L134.825 541.924L194.238 498.922L194.294 498.753L194.633 498.633L198.463 495.855L136.172 460.985L120.914 477.732L123.333 493.431L194.963 494.736V496.346L121.994 495.042L119.236 477.216L140.124 454.303L171.374 417.912L171.931 419.417L178.544 412.171L203.109 416.567V415.593L204.722 415.641V416.857L241.303 423.394L207.197 491.515L202.222 495.114V495.517V495.968L281.094 468.529L271.731 541.964L204.794 499.397L202.439 498.077L241.908 561.585L205.835 577.26ZM202.609 501.305L207.327 574.877L239.626 560.884L202.609 501.305ZM137.624 541.908L171.326 565.763L193.375 501.563L137.624 541.908ZM204.012 497.095L205.697 498.037L270.497 539.259L279.207 470.928L204.012 497.095ZM198.286 491.298L200.31 494.559L200.665 494.301L203.085 418.193L179.1 413.91L172.519 421.156L198.286 491.298ZM137.462 459.85L197.818 493.665L196.77 491.95L171.302 422.493L141.309 455.398L137.462 459.85ZM204.722 418.475L202.302 493.126L205.947 490.485L238.94 424.61L204.722 418.475Z" fill="#535461"/>
<path id="Vector_6" d="M294.296 474.978C291.062 460.632 284.514 447.238 275.175 435.866C271.708 431.64 267.885 427.718 263.747 424.143C247.838 410.431 227.819 402.38 206.832 401.255C185.845 400.129 165.077 405.992 147.788 417.923C130.499 429.855 117.668 447.18 111.309 467.178C104.949 487.177 105.421 508.718 112.65 528.42C119.879 548.122 133.456 564.871 151.251 576.036C169.045 587.202 190.05 592.153 210.968 590.113C231.886 588.073 251.533 579.156 266.826 564.763C282.119 550.37 292.193 531.315 295.465 510.589C296.227 505.709 296.61 500.778 296.61 495.839C296.616 488.821 295.84 481.825 294.296 474.978ZM201.399 567.043C186.695 567.028 172.353 562.492 160.323 554.052C148.292 545.613 139.158 533.679 134.161 519.873C129.163 506.068 128.546 491.061 132.394 476.894C136.241 462.726 144.365 450.085 155.662 440.69C166.959 431.294 180.881 425.6 195.534 424.382C210.187 423.163 224.86 426.48 237.558 433.881C250.257 441.281 260.364 452.406 266.505 465.743C272.647 479.081 274.525 493.982 271.884 508.423C268.86 524.882 260.15 539.761 247.272 550.472C234.393 561.183 218.161 567.047 201.399 567.043V567.043Z" fill="#535461"/>
<path id="Vector_7" d="M201.399 505.83C207.105 505.83 211.73 501.213 211.73 495.517C211.73 489.821 207.105 485.203 201.399 485.203C195.693 485.203 191.068 489.821 191.068 495.517C191.068 501.213 195.693 505.83 201.399 505.83Z" fill="#535461"/>
</g>
<g id="manbike">
<path id="Vector_8" d="M312.102 446.278L277.661 412.348L266.898 423.236L301.34 457.167L312.102 446.278Z" fill="#535461"/>
<path id="Vector_9" d="M285.876 396.109C285.876 396.109 305.869 385.578 313.595 378.799C318.246 374.737 323.246 371.091 328.538 367.906L353.62 352.665L406.04 348.639L408.459 357.496C408.459 357.496 412.492 370.378 372.168 381.649C331.845 392.921 311.683 410.633 311.683 410.633C311.683 410.633 285.876 419.457 285.876 396.109Z" fill="#DB8B8B"/>
<path id="Vector_10" opacity="0.1" d="M313.82 408.886C312.393 409.973 311.683 410.601 311.683 410.601C311.683 410.601 285.876 419.457 285.876 396.109C285.876 396.109 287.126 395.449 289.102 394.346C291.099 397.591 293.895 400.271 297.224 402.13C300.553 403.989 304.304 404.965 308.119 404.965H310.853L313.82 408.886Z" fill="black"/>
<path id="Vector_11" opacity="0.05" d="M407.701 361.94C405.459 366.682 397.725 374.476 372.168 381.617C339.418 390.771 319.966 404.16 313.82 408.886C312.393 409.973 311.683 410.601 311.683 410.601C311.683 410.601 285.876 419.457 285.876 396.109C285.876 396.109 287.126 395.449 289.102 394.346C295.094 391.069 307.78 383.879 313.57 378.767C318.22 374.703 323.221 371.058 328.514 367.874L353.595 352.633L362.934 351.916L406.016 348.607L408.435 357.463C408.435 357.463 409 359.194 407.701 361.94Z" fill="black"/>
<path id="Vector_12" d="M286.28 390.876L264.908 404.965L327.49 457.298C327.49 457.298 336.684 451.662 331.845 445.221C331.845 445.221 315.716 431.534 314.909 412.211L310.07 405.77H307.336C302.714 405.771 298.205 404.338 294.433 401.67C290.661 399.002 287.812 395.23 286.28 390.876V390.876Z" fill="#ABB1D1"/>
<path id="Vector_13" opacity="0.1" d="M407.701 361.94C394.798 355.716 363.297 355.048 363.297 355.048L362.959 351.916L406.04 348.607L408.459 357.463C408.459 357.463 409 359.194 407.701 361.94Z" fill="black"/>
<path id="Vector_14" d="M363.297 353.438C363.297 353.438 401.201 354.243 410.879 362.294L406.04 264.875H353.62L363.297 353.438Z" fill="#ABB1D1"/>
<path id="Vector_15" opacity="0.05" d="M363.297 353.035C363.297 353.035 401.201 353.84 410.879 361.892L406.04 264.473H353.62L363.297 353.035Z" fill="black"/>
<path id="Vector_16" d="M393.749 293.827C393.749 293.827 488.63 290.607 490.566 302.852C492.501 315.098 395.685 309.937 395.685 309.937C395.685 309.937 387.943 302.2 393.749 293.827Z" fill="#535461"/>
<path id="Vector_17" opacity="0.05" d="M393.749 293.827C393.749 293.827 488.63 290.607 490.566 302.852C492.501 315.098 395.685 309.937 395.685 309.937C395.685 309.937 387.943 302.2 393.749 293.827Z" fill="black"/>
<path id="Vector_18" d="M316.941 342.802H300.159V488.432H316.941V342.802Z" fill="#909298"/>
<path id="Vector_19" opacity="0.1" d="M316.941 342.794V354.01C311.361 354.734 305.651 355.193 300.159 355.37V342.794H316.941Z" fill="black"/>
<path id="Vector_20" d="M315.683 330.726C313.329 330.544 310.986 330.229 308.667 329.784C299.57 328.045 276.634 324.397 270.465 330.589C262.723 338.318 265.303 351.852 285.957 353.784C306.611 355.716 342.111 350.564 349.216 342.826C349.216 342.794 336.369 332.312 315.683 330.726Z" fill="#535461"/>
<path id="Vector_21" d="M312.425 382.752L488.638 327.98L494.445 341.514L313.716 403.371L312.425 382.752Z" fill="#909298"/>
<path id="Vector_22" d="M364.709 469.101L491.864 344.091L498.961 354.396L377.612 480.695L364.709 469.101Z" fill="#909298"/>
<path id="Vector_23" opacity="0.1" d="M527.091 426.591C523.062 427.631 519.132 429.024 515.348 430.753L507.639 409.249C511.685 407.488 515.851 406.016 520.107 404.845L527.091 426.591Z" fill="black"/>
<path id="Vector_24" d="M548.664 489.72L539.631 494.873L476.614 319.092L473.791 311.226L488.638 302.844L492.356 314.422L548.664 489.72Z" fill="#909298"/>
<path id="Vector_25" opacity="0.1" d="M492.356 314.422L476.614 319.092L473.791 311.226L488.638 302.844L492.356 314.422Z" fill="black"/>
<path id="Vector_26" d="M396.33 327.98L484.759 297.692C484.759 297.692 500.251 299.624 494.437 312.514L405.371 338.93C405.371 338.93 391.822 340.218 396.33 327.98Z" fill="#535461"/>
<path id="Vector_27" opacity="0.1" d="M296.61 495.839C296.61 500.777 296.227 505.709 295.465 510.589C287.723 510.033 279.723 509.228 271.884 508.423C273.626 498.849 273.409 489.023 271.247 479.535C278.884 477.925 286.683 476.387 294.296 474.994C295.838 481.835 296.615 488.826 296.61 495.839V495.839Z" fill="black"/>
<path id="Vector_28" opacity="0.1" d="M316.941 471.299V488.424H300.159V473.932C305.965 472.925 311.611 472.032 316.941 471.299Z" fill="black"/>
<path id="Vector_29" d="M208.504 495.541C208.504 495.541 344.055 460.116 355.023 473.634C365.991 487.152 377.612 505.202 343.434 511.643C309.256 518.084 205.947 500.686 205.947 500.686L208.504 495.541Z" fill="#909298"/>
<path id="Vector_30" d="M203.988 488.432L305.32 382.752L308.554 407.236L209.149 498.093L203.988 488.432Z" fill="#909298"/>
<path id="Vector_31" opacity="0.1" d="M544.47 504.864C550.176 504.864 554.801 500.247 554.801 494.551C554.801 488.855 550.176 484.237 544.47 484.237C538.764 484.237 534.139 488.855 534.139 494.551C534.139 500.247 538.764 504.864 544.47 504.864Z" fill="black"/>
<path id="Vector_32" opacity="0.1" d="M361.475 505.83C372.881 505.83 382.128 496.599 382.128 485.211C382.128 473.824 372.881 464.592 361.475 464.592C350.068 464.592 340.821 473.824 340.821 485.211C340.821 496.599 350.068 505.83 361.475 505.83Z" fill="black"/>
<path id="Vector_33" d="M362.773 505.83C374.18 505.83 383.427 496.599 383.427 485.211C383.427 473.824 374.18 464.592 362.773 464.592C351.366 464.592 342.119 473.824 342.119 485.211C342.119 496.599 351.366 505.83 362.773 505.83Z" fill="#535461"/>
<path id="Vector_34" d="M357.259 483.662L357.252 483.667C354.827 485.478 354.331 488.909 356.145 491.33L372.537 513.214C374.351 515.635 377.787 516.13 380.213 514.319L380.219 514.314C382.645 512.504 383.141 509.073 381.327 506.651L364.935 484.768C363.121 482.346 359.684 481.851 357.259 483.662Z" fill="#6C63FF"/>
<path id="Vector_35" d="M456.041 198.856L454.121 223.098C453.901 226.168 453.941 229.252 454.242 232.316C454.492 235.029 454.242 239.78 451.581 247.026C448.164 256.282 446.398 266.065 446.363 275.929V303.521L427.815 300.3C427.815 300.3 428.621 261.655 425.395 255.214C422.169 248.773 427.815 191.61 427.815 191.61L456.041 198.856Z" fill="#DB8B8B"/>
<path id="Vector_36" opacity="0.05" d="M455.089 210.868L454.121 223.098C453.903 226.166 453.947 229.247 454.25 232.308C454.501 235.021 454.251 239.772 451.589 247.026C448.172 256.282 446.406 266.065 446.371 275.929V303.521L427.823 300.3C427.823 300.3 428.629 261.655 425.403 255.214C423.121 250.649 425.282 220.642 426.742 203.517C427.347 196.472 427.823 191.61 427.823 191.61L456.049 198.856L455.089 210.868Z" fill="black"/>
<path id="Vector_37" d="M364.12 384.032L357.144 423.644C356.264 428.933 354.915 434.133 353.112 439.183C349.023 450.342 351.636 465.985 353.62 474.519C354.499 478.287 355.233 480.67 355.233 480.67L334.264 491.942L327.813 487.111V483.891L327.006 412.236C322.167 400.964 323.78 384.056 327.006 377.616C327.923 375.499 328.568 373.276 328.926 370.997C330.539 362.367 331.039 350.242 331.039 350.242C331.039 350.242 343.942 328.503 359.265 342.996C364.91 348.333 367.055 355.314 367.507 361.996C368.297 373.437 364.12 384.032 364.12 384.032Z" fill="#DB8B8B"/>
<path id="Vector_38" opacity="0.1" d="M367.507 361.972C356.321 368.606 336.861 370.482 328.926 370.973C330.539 362.342 331.039 350.217 331.039 350.217C331.039 350.217 343.942 328.479 359.265 342.971C364.91 348.309 367.055 355.29 367.507 361.972Z" fill="black"/>
<path id="Vector_39" d="M394.749 342.166C386.173 346.726 378.069 352.119 370.555 358.269C357.652 368.735 325.393 369.54 325.393 369.54V357.463C326.2 342.971 312.49 326.869 293.941 281.783C282.094 252.992 285.376 236.696 289.296 228.645C291.522 224.096 293.941 222.204 293.941 222.204L394.749 241.527L398.354 252.315L406.04 275.342C406.04 275.342 377.814 276.952 372.975 279.367C368.136 281.783 371.362 303.521 371.362 303.521C366.523 326.064 394.749 342.166 394.749 342.166Z" fill="#ABB1D1"/>
<path id="Vector_40" opacity="0.1" d="M456.041 198.856L455.089 210.868C441.057 214.894 431.04 202.076 431.04 202.076C429.577 202.468 428.138 202.949 426.734 203.517C427.339 196.472 427.815 191.61 427.815 191.61L456.041 198.856Z" fill="black"/>
<path id="Vector_41" opacity="0.1" d="M398.354 252.315C397.975 256.075 397.975 258.434 397.975 258.434C397.975 258.434 379.427 273.731 347.974 250.383C316.522 227.035 288.296 233.476 288.296 233.476C288.296 233.476 288.626 231.608 289.296 228.645C291.522 224.096 293.941 222.204 293.941 222.204L394.749 241.527L398.354 252.315Z" fill="black"/>
<path id="Vector_42" d="M466.912 167.416C464.807 183.8 464.106 204.451 464.106 204.451C445.557 218.943 431.04 200.426 431.04 200.426C413.524 205.119 405.29 220.425 401.411 233.782C399.333 241.006 398.179 248.465 397.975 255.979C397.975 255.979 393.072 260.004 384.04 260.809C375.499 261.526 363.257 259.304 347.974 247.927C316.522 224.579 288.296 231.02 288.296 231.02C288.296 231.02 293.941 198.815 306.845 189.154C319.748 179.493 329.426 167.416 345.555 130.38C361.684 93.3452 394.749 102.201 394.749 102.201C394.749 102.201 396.362 94.9554 426.202 102.201C433.469 104.103 440.197 107.661 445.855 112.595C461.815 125.993 469.557 146.773 466.912 167.416Z" fill="white"/>
<path id="Vector_43" d="M436.984 120.357C436.944 121.428 436.855 122.619 436.71 123.948C435.097 138.44 433.484 136.83 415.742 140.05C404.709 142.055 398.975 132.852 396.217 125.606C395.219 122.981 394.466 120.27 393.967 117.507L432.678 111.066C432.678 111.066 437.315 109.77 436.984 120.357Z" fill="#DB8B8B"/>
<path id="Vector_44" opacity="0.05" d="M401.411 233.822C399.333 241.047 398.179 248.505 397.975 256.019C397.975 256.019 393.072 260.044 384.04 260.85C383.785 260.337 383.59 259.796 383.459 259.239C381.846 251.993 369.749 239.111 369.749 239.111C361.684 231.865 360.071 218.983 360.071 218.983L346.765 179.935L342.329 176.312C342.329 176.312 360.878 161.82 377.007 173.897C393.136 185.974 388.298 211.737 388.298 211.737L391.524 220.594C394.87 223.412 398.274 228.379 401.411 233.822Z" fill="black"/>
<path id="Vector_45" d="M344.748 175.507L362.491 218.178C362.491 218.178 364.104 231.06 372.168 238.306C372.168 238.306 384.265 251.188 385.878 258.434C387.491 265.68 410.072 285.003 410.072 285.003C410.072 285.003 431.04 304.326 432.653 311.572C432.653 311.572 452.009 317.208 449.589 328.479C449.589 328.479 464.106 313.987 449.589 300.3C435.073 286.613 415.718 258.434 415.718 258.434C415.718 258.434 404.427 228.645 393.943 219.789L390.717 210.932C390.717 210.932 395.556 185.169 379.427 173.092C363.297 161.015 344.748 175.507 344.748 175.507Z" fill="#DB8B8B"/>
<path id="Vector_46" opacity="0.1" d="M355.233 480.646L334.264 491.918L327.813 487.087V483.867C335.058 483.353 342.097 481.232 348.418 477.659C350.353 476.564 352.176 475.485 353.636 474.535C354.483 478.263 355.233 480.646 355.233 480.646Z" fill="black"/>
<path id="Vector_47" opacity="0.1" d="M379.427 141.692L390.717 185.974C390.717 185.974 356.039 191.61 348.781 185.974C341.523 180.338 327.813 178.728 327.813 178.728C327.813 178.728 342.329 136.862 350.394 132.031C358.458 127.2 379.427 141.692 379.427 141.692Z" fill="black"/>
<path id="Vector_48" d="M379.427 140.082L390.717 184.364C390.717 184.364 356.039 189.999 348.781 184.364C341.523 178.728 327.813 177.117 327.813 177.117C327.813 177.117 342.329 135.251 350.394 130.421C358.458 125.59 379.427 140.082 379.427 140.082Z" fill="white"/>
<path id="Vector_49" opacity="0.1" d="M436.984 119.552C434.725 122.664 431.853 125.283 428.542 127.246C425.232 129.209 421.555 130.476 417.736 130.967C413.918 131.459 410.039 131.166 406.338 130.105C402.638 129.045 399.193 127.24 396.217 124.801C395.219 122.176 394.466 119.465 393.967 116.702L432.678 110.261C432.678 110.261 437.315 108.964 436.984 119.552Z" fill="black"/>
<path id="Vector_50" d="M442.331 102.242C442.331 109.715 439.357 116.883 434.064 122.167C428.77 127.452 421.591 130.421 414.105 130.421C406.619 130.421 399.439 127.452 394.146 122.167C388.852 116.883 385.878 109.715 385.878 102.242C385.878 101.775 385.878 101.308 385.878 100.841C386.064 93.3672 389.217 86.2736 394.642 81.1203C400.067 75.9671 407.32 73.1764 414.806 73.3622C422.292 73.548 429.398 76.695 434.56 82.1109C439.722 87.5269 442.517 94.7681 442.331 102.242V102.242Z" fill="#DB8B8B"/>
<path id="Vector_51" opacity="0.05" d="M310.474 188.792C310.474 188.792 331.442 194.427 337.894 208.92C344.345 223.412 361.797 226.061 361.797 226.061" fill="black"/>
<path id="Vector_52" d="M389.507 507.618H341.119V522.915H389.507V507.618Z" fill="#535461"/>
<path id="Vector_53" d="M348.386 479.229C352.716 476.814 356.515 474.398 356.845 473.4C356.845 473.4 367.773 484.913 377.507 488.488C380.78 489.695 383.914 491.25 386.854 493.126C390.709 495.541 396.209 498.383 401.201 498.383C401.201 498.383 412.492 508.044 390.717 509.655C368.942 511.265 318.135 505.629 318.135 505.629L321.361 485.501C330.786 486.053 340.171 483.875 348.386 479.229Z" fill="#ABB1D1"/>
<path id="Vector_54" opacity="0.1" d="M202.697 505.83C208.403 505.83 213.028 501.213 213.028 495.517C213.028 489.821 208.403 485.203 202.697 485.203C196.992 485.203 192.367 489.821 192.367 495.517C192.367 501.213 196.992 505.83 202.697 505.83Z" fill="black"/>
<path id="Vector_55" opacity="0.1" d="M275.175 435.866L257.948 451.606C254.898 447.696 251.449 444.113 247.658 440.914L263.739 424.143C267.879 427.717 271.705 431.639 275.175 435.866V435.866Z" fill="black"/>
</g>
<g id="hat">
<path id="Vector_56" d="M368.503 77.561C370.221 82.9392 378.471 83.1082 382.705 87.0694C384.907 89.1305 385.931 92.1738 388.35 94.0095C391.713 96.5698 396.568 96.0062 400.85 95.3943C409.472 94.1705 418.73 93.4379 426.504 97.1494C429.262 98.4618 431.738 100.297 434.617 101.368C437.496 102.439 441.069 102.568 443.408 100.668C445.279 99.1461 445.964 96.6422 447.658 94.9676C448.972 93.6472 450.803 92.9065 452.303 91.7471C455.593 89.2674 457.013 85.2257 457.948 81.3611C459.884 73.4066 460.44 64.8321 457.142 57.2882C453.843 49.7442 445.908 43.6012 437.246 43.9957C434.593 44.1165 432.004 44.8008 429.359 45.0906C422.464 45.7911 415.649 43.4804 408.73 43.0859C406.723 42.8421 404.686 43.1194 402.818 43.891C401.41 44.6727 400.194 45.7593 399.262 47.0712C396.094 51.2139 393.925 56.0296 392.923 61.1447C392.116 65.0012 392.076 68.4954 387.342 69.0912C381.963 69.7997 364.866 66.1847 368.503 77.561Z" fill="#472727"/>
</g>
</g>
<defs>
<linearGradient id="paint0_linear" x1="677.832" y1="71.0017" x2="99.8318" y2="613.002" gradientUnits="userSpaceOnUse">
<stop stop-color="#38F9D6"/>
<stop offset="0.671875" stop-color="#7021D6"/>
</linearGradient>
<clipPath id="clip0">
<rect width="853" height="632" fill="white"/>
</clipPath>
</defs>
</svg>
